{
	"asset":{
		"generator":"Khronos glTF Blender I/O v3.5.30",
		"version":"2.0"
	},
	"scene":0,
	"scenes":[
		{
			"name":"Scene",
			"nodes":[
				0,
				1,
				2,
				3,
				4,
				5
			]
		}
	],
	"nodes":[
		{
			"mesh":0,
			"name":"Sphere.001",
			"scale":[
				0,
				0,
				0
			],
			"translation":[
				-0.2248261570930481,
				-0.7008491158485413,
				0
			]
		},
		{
			"mesh":1,
			"name":"Text.001",
			"scale":[
				0,
				0,
				0
			],
			"translation":[
				-0.053340792655944824,
				-0.6007451415061951,
				0.20000001788139343
			]
		},
		{
			"mesh":2,
			"name":"Asset 1.001",
			"rotation":[
				0.7071068286895752,
				0,
				0,
				0.7071068286895752
			],
			"scale":[
				4.251340866088867,
				4.251340866088867,
				4.251340866088867
			],
			"translation":[
				-2.99377703666687,
				-2.3781328201293945,
				0.24156570434570312
			]
		},
		{
			"mesh":3,
			"name":"Asset 2",
			"rotation":[
				0.7071068286895752,
				0,
				0,
				0.7071067690849304
			],
			"scale":[
				4.254131317138672,
				4.254131317138672,
				4.254131317138672
			],
			"translation":[
				7.532156467437744,
				-2.5592198371887207,
				0.2248077392578125
			]
		},
		{
			"mesh":4,
			"name":"Sphere",
			"scale":[
				0,
				0,
				0
			],
			"translation":[
				4.765779972076416,
				-0.7008491158485413,
				0
			]
		},
		{
			"mesh":5,
			"name":"Text",
			"scale":[
				0,
				0,
				0
			],
			"translation":[
				4.735965728759766,
				-0.6007451415061951,
				0.20000001788139343
			]
		}
	],
	"animations":[
		{
			"channels":[
				{
					"sampler":0,
					"target":{
						"node":0,
						"path":"scale"
					}
				}
			],
			"name":"Sphere.001Action.007",
			"samplers":[
				{
					"input":22,
					"interpolation":"LINEAR",
					"output":23
				}
			]
		},
		{
			"channels":[
				{
					"sampler":0,
					"target":{
						"node":1,
						"path":"scale"
					}
				}
			],
			"name":"Text.001Action",
			"samplers":[
				{
					"input":22,
					"interpolation":"LINEAR",
					"output":24
				}
			]
		},
		{
			"channels":[
				{
					"sampler":0,
					"target":{
						"node":4,
						"path":"scale"
					}
				}
			],
			"name":"SphereAction.004",
			"samplers":[
				{
					"input":25,
					"interpolation":"LINEAR",
					"output":26
				}
			]
		},
		{
			"channels":[
				{
					"sampler":0,
					"target":{
						"node":5,
						"path":"scale"
					}
				}
			],
			"name":"TextAction",
			"samplers":[
				{
					"input":25,
					"interpolation":"LINEAR",
					"output":27
				}
			]
		}
	],
	"materials":[
		{
			"doubleSided":true,
			"name":"Material.004",
			"pbrMetallicRoughness":{
				"baseColorFactor":[
					0.800000011920929,
					0.800000011920929,
					0.800000011920929,
					1
				],
				"metallicFactor":0,
				"roughnessFactor":0.5
			}
		},
		{
			"doubleSided":true,
			"name":"Material.005",
			"pbrMetallicRoughness":{
				"baseColorFactor":[
					0.04202696308493614,
					0.04202696308493614,
					0.04202696308493614,
					1
				],
				"metallicFactor":0,
				"roughnessFactor":0.5
			}
		},
		{
			"alphaMode":"BLEND",
			"doubleSided":true,
			"name":"Asset 1",
			"pbrMetallicRoughness":{
				"baseColorTexture":{
					"index":0
				},
				"metallicFactor":0,
				"roughnessFactor":0.5
			}
		},
		{
			"alphaMode":"BLEND",
			"doubleSided":true,
			"name":"Asset 2",
			"pbrMetallicRoughness":{
				"baseColorTexture":{
					"index":1
				},
				"metallicFactor":0,
				"roughnessFactor":0.5
			}
		},
		{
			"doubleSided":true,
			"name":"Material.002",
			"pbrMetallicRoughness":{
				"baseColorFactor":[
					0.800000011920929,
					0.800000011920929,
					0.800000011920929,
					1
				],
				"metallicFactor":0,
				"roughnessFactor":0.5
			}
		},
		{
			"doubleSided":true,
			"name":"Material.003",
			"pbrMetallicRoughness":{
				"baseColorFactor":[
					0.04202696308493614,
					0.04202696308493614,
					0.04202696308493614,
					1
				],
				"metallicFactor":0,
				"roughnessFactor":0.5
			}
		}
	],
	"meshes":[
		{
			"name":"Sphere.001",
			"primitives":[
				{
					"attributes":{
						"POSITION":0,
						"TEXCOORD_0":1,
						"NORMAL":2
					},
					"indices":3,
					"material":0
				}
			]
		},
		{
			"name":"Text.001",
			"primitives":[
				{
					"attributes":{
						"POSITION":4,
						"TEXCOORD_0":5,
						"NORMAL":6
					},
					"indices":7,
					"material":1
				}
			]
		},
		{
			"name":"Asset 1.001",
			"primitives":[
				{
					"attributes":{
						"POSITION":8,
						"TEXCOORD_0":9,
						"NORMAL":10
					},
					"indices":11,
					"material":2
				}
			]
		},
		{
			"name":"Asset 2",
			"primitives":[
				{
					"attributes":{
						"POSITION":12,
						"TEXCOORD_0":13,
						"NORMAL":14
					},
					"indices":11,
					"material":3
				}
			]
		},
		{
			"name":"Sphere",
			"primitives":[
				{
					"attributes":{
						"POSITION":15,
						"TEXCOORD_0":16,
						"NORMAL":17
					},
					"indices":3,
					"material":4
				}
			]
		},
		{
			"name":"Text",
			"primitives":[
				{
					"attributes":{
						"POSITION":18,
						"TEXCOORD_0":19,
						"NORMAL":20
					},
					"indices":21,
					"material":5
				}
			]
		}
	],
	"textures":[
		{
			"sampler":0,
			"source":0
		},
		{
			"sampler":0,
			"source":1
		}
	],
	"images":[
		{
			"bufferView":12,
			"mimeType":"image/png",
			"name":"Asset 1"
		},
		{
			"bufferView":16,
			"mimeType":"image/png",
			"name":"Asset 2"
		}
	],
	"accessors":[
		{
			"bufferView":0,
			"componentType":5126,
			"count":1984,
			"max":[
				1.3145227432250977,
				1,
				0.9999993443489075
			],
			"min":[
				-0.9999990463256836,
				-1.8550952672958374,
				-1
			],
			"type":"VEC3"
		},
		{
			"bufferView":1,
			"componentType":5126,
			"count":1984,
			"type":"VEC2"
		},
		{
			"bufferView":2,
			"componentType":5126,
			"count":1984,
			"type":"VEC3"
		},
		{
			"bufferView":3,
			"componentType":5123,
			"count":2880,
			"type":"SCALAR"
		},
		{
			"bufferView":4,
			"componentType":5126,
			"count":1156,
			"max":[
				0.9080000519752502,
				0.09999998658895493,
				0.34550002217292786
			],
			"min":[
				-0.9080000519752502,
				-0.09999998658895493,
				-0.34550002217292786
			],
			"type":"VEC3"
		},
		{
			"bufferView":5,
			"componentType":5126,
			"count":1156,
			"type":"VEC2"
		},
		{
			"bufferView":6,
			"componentType":5126,
			"count":1156,
			"type":"VEC3"
		},
		{
			"bufferView":7,
			"componentType":5123,
			"count":3408,
			"type":"SCALAR"
		},
		{
			"bufferView":8,
			"componentType":5126,
			"count":4,
			"max":[
				0.19514884054660797,
				0,
				0.5
			],
			"min":[
				-0.19514884054660797,
				0,
				-0.5
			],
			"type":"VEC3"
		},
		{
			"bufferView":9,
			"componentType":5126,
			"count":4,
			"type":"VEC2"
		},
		{
			"bufferView":10,
			"componentType":5126,
			"count":4,
			"type":"VEC3"
		},
		{
			"bufferView":11,
			"componentType":5123,
			"count":6,
			"type":"SCALAR"
		},
		{
			"bufferView":13,
			"componentType":5126,
			"count":4,
			"max":[
				0.22017836570739746,
				0,
				0.5
			],
			"min":[
				-0.22017836570739746,
				0,
				-0.5
			],
			"type":"VEC3"
		},
		{
			"bufferView":14,
			"componentType":5126,
			"count":4,
			"type":"VEC2"
		},
		{
			"bufferView":15,
			"componentType":5126,
			"count":4,
			"type":"VEC3"
		},
		{
			"bufferView":17,
			"componentType":5126,
			"count":1984,
			"max":[
				1.3145227432250977,
				1,
				0.9999993443489075
			],
			"min":[
				-0.9999990463256836,
				-1.8550952672958374,
				-1
			],
			"type":"VEC3"
		},
		{
			"bufferView":18,
			"componentType":5126,
			"count":1984,
			"type":"VEC2"
		},
		{
			"bufferView":19,
			"componentType":5126,
			"count":1984,
			"type":"VEC3"
		},
		{
			"bufferView":20,
			"componentType":5126,
			"count":962,
			"max":[
				0.6220000386238098,
				0.09999998658895493,
				0.34550002217292786
			],
			"min":[
				-0.6220000386238098,
				-0.09999998658895493,
				-0.34550002217292786
			],
			"type":"VEC3"
		},
		{
			"bufferView":21,
			"componentType":5126,
			"count":962,
			"type":"VEC2"
		},
		{
			"bufferView":22,
			"componentType":5126,
			"count":962,
			"type":"VEC3"
		},
		{
			"bufferView":23,
			"componentType":5123,
			"count":2820,
			"type":"SCALAR"
		},
		{
			"bufferView":24,
			"componentType":5126,
			"count":16,
			"max":[
				0.8333333333333334
			],
			"min":[
				0.20833333333333334
			],
			"type":"SCALAR"
		},
		{
			"bufferView":25,
			"componentType":5126,
			"count":16,
			"type":"VEC3"
		},
		{
			"bufferView":26,
			"componentType":5126,
			"count":16,
			"type":"VEC3"
		},
		{
			"bufferView":27,
			"componentType":5126,
			"count":14,
			"max":[
				1.5
			],
			"min":[
				0.9583333333333334
			],
			"type":"SCALAR"
		},
		{
			"bufferView":28,
			"componentType":5126,
			"count":14,
			"type":"VEC3"
		},
		{
			"bufferView":29,
			"componentType":5126,
			"count":14,
			"type":"VEC3"
		}
	],
	"bufferViews":[
		{
			"buffer":0,
			"byteLength":23808,
			"byteOffset":0,
			"target":34962
		},
		{
			"buffer":0,
			"byteLength":15872,
			"byteOffset":23808,
			"target":34962
		},
		{
			"buffer":0,
			"byteLength":23808,
			"byteOffset":39680,
			"target":34962
		},
		{
			"buffer":0,
			"byteLength":5760,
			"byteOffset":63488,
			"target":34963
		},
		{
			"buffer":0,
			"byteLength":13872,
			"byteOffset":69248,
			"target":34962
		},
		{
			"buffer":0,
			"byteLength":9248,
			"byteOffset":83120,
			"target":34962
		},
		{
			"buffer":0,
			"byteLength":13872,
			"byteOffset":92368,
			"target":34962
		},
		{
			"buffer":0,
			"byteLength":6816,
			"byteOffset":106240,
			"target":34963
		},
		{
			"buffer":0,
			"byteLength":48,
			"byteOffset":113056,
			"target":34962
		},
		{
			"buffer":0,
			"byteLength":32,
			"byteOffset":113104,
			"target":34962
		},
		{
			"buffer":0,
			"byteLength":48,
			"byteOffset":113136,
			"target":34962
		},
		{
			"buffer":0,
			"byteLength":12,
			"byteOffset":113184,
			"target":34963
		},
		{
			"buffer":0,
			"byteLength":34333,
			"byteOffset":113196
		},
		{
			"buffer":0,
			"byteLength":48,
			"byteOffset":147532,
			"target":34962
		},
		{
			"buffer":0,
			"byteLength":32,
			"byteOffset":147580,
			"target":34962
		},
		{
			"buffer":0,
			"byteLength":48,
			"byteOffset":147612,
			"target":34962
		},
		{
			"buffer":0,
			"byteLength":51750,
			"byteOffset":147660
		},
		{
			"buffer":0,
			"byteLength":23808,
			"byteOffset":199412,
			"target":34962
		},
		{
			"buffer":0,
			"byteLength":15872,
			"byteOffset":223220,
			"target":34962
		},
		{
			"buffer":0,
			"byteLength":23808,
			"byteOffset":239092,
			"target":34962
		},
		{
			"buffer":0,
			"byteLength":11544,
			"byteOffset":262900,
			"target":34962
		},
		{
			"buffer":0,
			"byteLength":7696,
			"byteOffset":274444,
			"target":34962
		},
		{
			"buffer":0,
			"byteLength":11544,
			"byteOffset":282140,
			"target":34962
		},
		{
			"buffer":0,
			"byteLength":5640,
			"byteOffset":293684,
			"target":34963
		},
		{
			"buffer":0,
			"byteLength":64,
			"byteOffset":299324
		},
		{
			"buffer":0,
			"byteLength":192,
			"byteOffset":299388
		},
		{
			"buffer":0,
			"byteLength":192,
			"byteOffset":299580
		},
		{
			"buffer":0,
			"byteLength":56,
			"byteOffset":299772
		},
		{
			"buffer":0,
			"byteLength":168,
			"byteOffset":299828
		},
		{
			"buffer":0,
			"byteLength":168,
			"byteOffset":299996
		}
	],
	"samplers":[
		{
			"magFilter":9729,
			"minFilter":9987,
			"wrapS":33071,
			"wrapT":33071
		}
	],
	"buffers":[
		{
			"byteLength":300164,
			"uri":"data:application/octet-stream;base64,"
		}
	]
}
