{
	"asset":{
		"generator":"Khronos glTF Blender I/O v3.5.30",
		"version":"2.0"
	},
	"scene":0,
	"scenes":[
		{
			"name":"Scene",
			"nodes":[
				0,
				1,
				2,
				3
			]
		}
	],
	"nodes":[
		{
			"mesh":0,
			"name":"buble1",
			"rotation":[
				0.7071068286895752,
				0,
				0,
				0.7071068286895752
			],
			"scale":[
				2.0064046382904053,
				2.5348901748657227,
				2.0064046382904053
			],
			"translation":[
				-0.11006343364715576,
				-0.7525343894958496,
				6.050905704498291
			]
		},
		{
			"mesh":1,
			"name":"Boy_Chara_PNG-removebg-preview",
			"rotation":[
				0.7071068286895752,
				0,
				0,
				0.7071067690849304
			],
			"scale":[
				5.848788738250732,
				5.848788738250732,
				5.848788738250732
			],
			"translation":[
				-2.8094873428344727,
				-2.2281126976013184,
				6.017377853393555
			]
		},
		{
			"mesh":2,
			"name":"Girl_PNG-removebg-preview",
			"rotation":[
				0.7071068286895752,
				0,
				0,
				0.7071068286895752
			],
			"scale":[
				5.420268535614014,
				5.420268535614014,
				5.420268535614014
			],
			"translation":[
				5.763176441192627,
				-2.177692174911499,
				5.946661949157715
			]
		},
		{
			"mesh":3,
			"name":"buble2",
			"rotation":[
				0.7071068286895752,
				0,
				0,
				0.7071068286895752
			],
			"scale":[
				1.6942967176437378,
				1.6942967176437378,
				1.6942967176437378
			],
			"translation":[
				3.2045116424560547,
				-1.0797277688980103,
				5.969134330749512
			]
		}
	],
	"materials":[
		{
			"alphaMode":"BLEND",
			"doubleSided":true,
			"name":"buble1",
			"pbrMetallicRoughness":{
				"baseColorTexture":{
					"index":0
				},
				"metallicFactor":0,
				"roughnessFactor":0.5
			}
		},
		{
			"alphaMode":"BLEND",
			"doubleSided":true,
			"name":"Boy_Chara_PNG-removebg-preview",
			"pbrMetallicRoughness":{
				"baseColorTexture":{
					"index":1
				},
				"metallicFactor":0,
				"roughnessFactor":0.5
			}
		},
		{
			"alphaMode":"BLEND",
			"doubleSided":true,
			"name":"Girl_PNG-removebg-preview",
			"pbrMetallicRoughness":{
				"baseColorTexture":{
					"index":2
				},
				"metallicFactor":0,
				"roughnessFactor":0.5
			}
		},
		{
			"alphaMode":"BLEND",
			"doubleSided":true,
			"name":"buble2",
			"pbrMetallicRoughness":{
				"baseColorTexture":{
					"index":3
				},
				"metallicFactor":0,
				"roughnessFactor":0.5
			}
		}
	],
	"meshes":[
		{
			"name":"buble1",
			"primitives":[
				{
					"attributes":{
						"POSITION":0,
						"TEXCOORD_0":1,
						"NORMAL":2
					},
					"indices":3,
					"material":0
				}
			]
		},
		{
			"name":"Boy_Chara_PNG-removebg-preview",
			"primitives":[
				{
					"attributes":{
						"POSITION":4,
						"TEXCOORD_0":5,
						"NORMAL":6
					},
					"indices":3,
					"material":1
				}
			]
		},
		{
			"name":"Girl_PNG-removebg-preview",
			"primitives":[
				{
					"attributes":{
						"POSITION":7,
						"TEXCOORD_0":8,
						"NORMAL":9
					},
					"indices":3,
					"material":2
				}
			]
		},
		{
			"name":"buble2",
			"primitives":[
				{
					"attributes":{
						"POSITION":10,
						"TEXCOORD_0":11,
						"NORMAL":12
					},
					"indices":3,
					"material":3
				}
			]
		}
	],
	"textures":[
		{
			"sampler":0,
			"source":0
		},
		{
			"sampler":0,
			"source":1
		},
		{
			"sampler":0,
			"source":2
		},
		{
			"sampler":0,
			"source":3
		}
	],
	"images":[
		{
			"bufferView":4,
			"mimeType":"image/png",
			"name":"buble1"
		},
		{
			"bufferView":8,
			"mimeType":"image/png",
			"name":"Boy_Chara_PNG-removebg-preview"
		},
		{
			"bufferView":12,
			"mimeType":"image/png",
			"name":"Girl_PNG-removebg-preview"
		},
		{
			"bufferView":16,
			"mimeType":"image/png",
			"name":"buble2"
		}
	],
	"accessors":[
		{
			"bufferView":0,
			"componentType":5126,
			"count":4,
			"max":[
				0.8045067191123962,
				0,
				0.5
			],
			"min":[
				-0.8045067191123962,
				0,
				-0.5
			],
			"type":"VEC3"
		},
		{
			"bufferView":1,
			"componentType":5126,
			"count":4,
			"type":"VEC2"
		},
		{
			"bufferView":2,
			"componentType":5126,
			"count":4,
			"type":"VEC3"
		},
		{
			"bufferView":3,
			"componentType":5123,
			"count":6,
			"type":"SCALAR"
		},
		{
			"bufferView":5,
			"componentType":5126,
			"count":4,
			"max":[
				0.35210084915161133,
				0,
				0.5
			],
			"min":[
				-0.35210084915161133,
				0,
				-0.5
			],
			"type":"VEC3"
		},
		{
			"bufferView":6,
			"componentType":5126,
			"count":4,
			"type":"VEC2"
		},
		{
			"bufferView":7,
			"componentType":5126,
			"count":4,
			"type":"VEC3"
		},
		{
			"bufferView":9,
			"componentType":5126,
			"count":4,
			"max":[
				0.35210084915161133,
				0,
				0.5
			],
			"min":[
				-0.35210084915161133,
				0,
				-0.5
			],
			"type":"VEC3"
		},
		{
			"bufferView":10,
			"componentType":5126,
			"count":4,
			"type":"VEC2"
		},
		{
			"bufferView":11,
			"componentType":5126,
			"count":4,
			"type":"VEC3"
		},
		{
			"bufferView":13,
			"componentType":5126,
			"count":4,
			"max":[
				0.8510489463806152,
				0,
				0.5
			],
			"min":[
				-0.8510489463806152,
				0,
				-0.5
			],
			"type":"VEC3"
		},
		{
			"bufferView":14,
			"componentType":5126,
			"count":4,
			"type":"VEC2"
		},
		{
			"bufferView":15,
			"componentType":5126,
			"count":4,
			"type":"VEC3"
		}
	],
	"bufferViews":[
		{
			"buffer":0,
			"byteLength":48,
			"byteOffset":0,
			"target":34962
		},
		{
			"buffer":0,
			"byteLength":32,
			"byteOffset":48,
			"target":34962
		},
		{
			"buffer":0,
			"byteLength":48,
			"byteOffset":80,
			"target":34962
		},
		{
			"buffer":0,
			"byteLength":12,
			"byteOffset":128,
			"target":34963
		},
		{
			"buffer":0,
			"byteLength":53176,
			"byteOffset":140
		},
		{
			"buffer":0,
			"byteLength":48,
			"byteOffset":53316,
			"target":34962
		},
		{
			"buffer":0,
			"byteLength":32,
			"byteOffset":53364,
			"target":34962
		},
		{
			"buffer":0,
			"byteLength":48,
			"byteOffset":53396,
			"target":34962
		},
		{
			"buffer":0,
			"byteLength":135855,
			"byteOffset":53444
		},
		{
			"buffer":0,
			"byteLength":48,
			"byteOffset":189300,
			"target":34962
		},
		{
			"buffer":0,
			"byteLength":32,
			"byteOffset":189348,
			"target":34962
		},
		{
			"buffer":0,
			"byteLength":48,
			"byteOffset":189380,
			"target":34962
		},
		{
			"buffer":0,
			"byteLength":125963,
			"byteOffset":189428
		},
		{
			"buffer":0,
			"byteLength":48,
			"byteOffset":315392,
			"target":34962
		},
		{
			"buffer":0,
			"byteLength":32,
			"byteOffset":315440,
			"target":34962
		},
		{
			"buffer":0,
			"byteLength":48,
			"byteOffset":315472,
			"target":34962
		},
		{
			"buffer":0,
			"byteLength":37990,
			"byteOffset":315520
		}
	],
	"samplers":[
		{
			"magFilter":9729,
			"minFilter":9987,
			"wrapS":33071,
			"wrapT":33071
		}
	],
	"buffers":[
		{
			"byteLength":353512,
			"uri":"data:application/octet-stream;base64,"
		}
	]
}
