{
	"asset":{
		"generator":"Khronos glTF Blender I/O v3.5.30",
		"version":"2.0"
	},
	"scene":0,
	"scenes":[
		{
			"name":"Scene",
			"nodes":[
				0,
				1,
				2,
				3
			]
		}
	],
	"nodes":[
		{
			"mesh":0,
			"name":"buble1-v2",
			"rotation":[
				0.004721370525658131,
				-0.7070910334587097,
				0.7070910930633545,
				0.004721370525658131
			],
			"scale":[
				2.021061658859253,
				2.021061658859253,
				2.021061658859253
			],
			"translation":[
				3.7432804107666016,
				0.49696147441864014,
				5.26639461517334
			]
		},
		{
			"mesh":1,
			"name":"buble2-v2",
			"rotation":[
				0.006963083054870367,
				0.7070724964141846,
				-0.7070724964141846,
				0.006963083054870367
			],
			"scale":[
				2.053189992904663,
				2.053189992904663,
				2.053189992904663
			],
			"translation":[
				0.24821555614471436,
				0.4021843671798706,
				5.10077428817749
			]
		},
		{
			"mesh":2,
			"name":"Boy_Chara_PNG-removebg-preview",
			"rotation":[
				0.006925322115421295,
				0.707072913646698,
				-0.707072913646698,
				0.006925322115421295
			],
			"scale":[
				5.848788738250732,
				5.848788738250732,
				5.848788738250732
			],
			"translation":[
				6.165715217590332,
				-1.1729365587234497,
				5.271810531616211
			]
		},
		{
			"mesh":3,
			"name":"Girl_PNG-removebg-preview",
			"rotation":[
				0.006925322115421295,
				0.707072913646698,
				-0.707072913646698,
				0.006925322115421295
			],
			"scale":[
				5.420268535614014,
				5.420268535614014,
				5.420268535614014
			],
			"translation":[
				-2.4066905975341797,
				-1.1225160360336304,
				5.174603462219238
			]
		}
	],
	"materials":[
		{
			"alphaMode":"BLEND",
			"doubleSided":true,
			"name":"buble1-v2",
			"pbrMetallicRoughness":{
				"baseColorTexture":{
					"index":0
				},
				"metallicFactor":0,
				"roughnessFactor":0.5
			}
		},
		{
			"alphaMode":"BLEND",
			"doubleSided":true,
			"name":"buble2-v2",
			"pbrMetallicRoughness":{
				"baseColorTexture":{
					"index":1
				},
				"metallicFactor":0,
				"roughnessFactor":0.5
			}
		},
		{
			"alphaMode":"BLEND",
			"doubleSided":true,
			"name":"Boy_Chara_PNG-removebg-preview",
			"pbrMetallicRoughness":{
				"baseColorTexture":{
					"index":2
				},
				"metallicFactor":0,
				"roughnessFactor":0.5
			}
		},
		{
			"alphaMode":"BLEND",
			"doubleSided":true,
			"name":"Girl_PNG-removebg-preview",
			"pbrMetallicRoughness":{
				"baseColorTexture":{
					"index":3
				},
				"metallicFactor":0,
				"roughnessFactor":0.5
			}
		}
	],
	"meshes":[
		{
			"name":"buble1-v2",
			"primitives":[
				{
					"attributes":{
						"POSITION":0,
						"TEXCOORD_0":1,
						"NORMAL":2
					},
					"indices":3,
					"material":0
				}
			]
		},
		{
			"name":"buble2-v2",
			"primitives":[
				{
					"attributes":{
						"POSITION":4,
						"TEXCOORD_0":5,
						"NORMAL":6
					},
					"indices":3,
					"material":1
				}
			]
		},
		{
			"name":"Boy_Chara_PNG-removebg-preview",
			"primitives":[
				{
					"attributes":{
						"POSITION":7,
						"TEXCOORD_0":8,
						"NORMAL":9
					},
					"indices":3,
					"material":2
				}
			]
		},
		{
			"name":"Girl_PNG-removebg-preview",
			"primitives":[
				{
					"attributes":{
						"POSITION":10,
						"TEXCOORD_0":11,
						"NORMAL":12
					},
					"indices":3,
					"material":3
				}
			]
		}
	],
	"textures":[
		{
			"sampler":0,
			"source":0
		},
		{
			"sampler":0,
			"source":1
		},
		{
			"sampler":0,
			"source":2
		},
		{
			"sampler":0,
			"source":3
		}
	],
	"images":[
		{
			"bufferView":4,
			"mimeType":"image/png",
			"name":"buble1-v2"
		},
		{
			"bufferView":8,
			"mimeType":"image/png",
			"name":"buble2-v2"
		},
		{
			"bufferView":12,
			"mimeType":"image/png",
			"name":"Boy_Chara_PNG-removebg-preview"
		},
		{
			"bufferView":16,
			"mimeType":"image/png",
			"name":"Girl_PNG-removebg-preview"
		}
	],
	"accessors":[
		{
			"bufferView":0,
			"componentType":5126,
			"count":4,
			"max":[
				0.8045067191123962,
				0,
				0.5
			],
			"min":[
				-0.8045067191123962,
				0,
				-0.5
			],
			"type":"VEC3"
		},
		{
			"bufferView":1,
			"componentType":5126,
			"count":4,
			"type":"VEC2"
		},
		{
			"bufferView":2,
			"componentType":5126,
			"count":4,
			"type":"VEC3"
		},
		{
			"bufferView":3,
			"componentType":5123,
			"count":6,
			"type":"SCALAR"
		},
		{
			"bufferView":5,
			"componentType":5126,
			"count":4,
			"max":[
				0.8510489463806152,
				0,
				0.5
			],
			"min":[
				-0.8510489463806152,
				0,
				-0.5
			],
			"type":"VEC3"
		},
		{
			"bufferView":6,
			"componentType":5126,
			"count":4,
			"type":"VEC2"
		},
		{
			"bufferView":7,
			"componentType":5126,
			"count":4,
			"type":"VEC3"
		},
		{
			"bufferView":9,
			"componentType":5126,
			"count":4,
			"max":[
				0.35210084915161133,
				0,
				0.5
			],
			"min":[
				-0.35210084915161133,
				0,
				-0.5
			],
			"type":"VEC3"
		},
		{
			"bufferView":10,
			"componentType":5126,
			"count":4,
			"type":"VEC2"
		},
		{
			"bufferView":11,
			"componentType":5126,
			"count":4,
			"type":"VEC3"
		},
		{
			"bufferView":13,
			"componentType":5126,
			"count":4,
			"max":[
				0.35210084915161133,
				0,
				0.5
			],
			"min":[
				-0.35210084915161133,
				0,
				-0.5
			],
			"type":"VEC3"
		},
		{
			"bufferView":14,
			"componentType":5126,
			"count":4,
			"type":"VEC2"
		},
		{
			"bufferView":15,
			"componentType":5126,
			"count":4,
			"type":"VEC3"
		}
	],
	"bufferViews":[
		{
			"buffer":0,
			"byteLength":48,
			"byteOffset":0,
			"target":34962
		},
		{
			"buffer":0,
			"byteLength":32,
			"byteOffset":48,
			"target":34962
		},
		{
			"buffer":0,
			"byteLength":48,
			"byteOffset":80,
			"target":34962
		},
		{
			"buffer":0,
			"byteLength":12,
			"byteOffset":128,
			"target":34963
		},
		{
			"buffer":0,
			"byteLength":54316,
			"byteOffset":140
		},
		{
			"buffer":0,
			"byteLength":48,
			"byteOffset":54456,
			"target":34962
		},
		{
			"buffer":0,
			"byteLength":32,
			"byteOffset":54504,
			"target":34962
		},
		{
			"buffer":0,
			"byteLength":48,
			"byteOffset":54536,
			"target":34962
		},
		{
			"buffer":0,
			"byteLength":47220,
			"byteOffset":54584
		},
		{
			"buffer":0,
			"byteLength":48,
			"byteOffset":101804,
			"target":34962
		},
		{
			"buffer":0,
			"byteLength":32,
			"byteOffset":101852,
			"target":34962
		},
		{
			"buffer":0,
			"byteLength":48,
			"byteOffset":101884,
			"target":34962
		},
		{
			"buffer":0,
			"byteLength":135855,
			"byteOffset":101932
		},
		{
			"buffer":0,
			"byteLength":48,
			"byteOffset":237788,
			"target":34962
		},
		{
			"buffer":0,
			"byteLength":32,
			"byteOffset":237836,
			"target":34962
		},
		{
			"buffer":0,
			"byteLength":48,
			"byteOffset":237868,
			"target":34962
		},
		{
			"buffer":0,
			"byteLength":125963,
			"byteOffset":237916
		}
	],
	"samplers":[
		{
			"magFilter":9729,
			"minFilter":9987,
			"wrapS":33071,
			"wrapT":33071
		}
	],
	"buffers":[
		{
			"byteLength":363880,
			"uri":"data:application/octet-stream;base64,"
		}
	]
}
